# File created by Blade
# Date/Time:  Tue Sep 30 19:15:05 2014
# Frame Rate: 120.000 fps
#------------------------------------------------------
:FULLY-SPECIFIED
:DEGREES
4265
root -3.842192 32.813235 -1.361797 9.877709 7.182796 1.664218
Spine -7.872015 3.371974 -3.573277
Head -21.102752 0.377220 8.027385
LeftShoulder 16.426144 11.203826 27.480914
LeftArm -34.356169 -21.804721 -34.130879
LeftForeArm -58.747272 13.160690 7.867096
LeftHand -0.000052 34.194621 12.894439
LeftHandThumb1 30.357831 13.997178 22.438692
RightShoulder -15.682146 -20.218789 -35.056202
RightArm -8.485028 -14.064615 32.947847
RightForeArm 17.742234 -10.240093 29.057569
RightHand -0.000018 -15.402825 5.282381
RightHandThumb1 30.482666 -12.916435 -20.793814
LeftUpLeg -7.368142 -3.820904 -3.847236
LeftLeg 5.782800 -0.000000 -0.000000
LeftFoot -11.256137 3.231192 -14.878486
LeftToeBase 2.771800 -0.000000 -0.000000
RightUpLeg -12.017978 -4.177468 -3.377955
RightLeg 17.446501 -0.000000 0.000000
RightFoot -14.465333 -10.363169 -6.804843
RightToeBase -0.442400 -0.000000 0.000000
4266
root -3.866792 32.815734 -1.325297 9.930062 6.869497 1.771909
Spine -7.986885 3.615231 -3.457688
Head -21.086534 0.443193 7.492845
LeftShoulder 16.494767 11.405417 27.407669
LeftArm -34.660146 -21.879417 -33.858621
LeftForeArm -58.209746 13.586172 8.283691
LeftHand 0.000026 34.285090 13.086581
LeftHandThumb1 30.357831 13.997178 22.438692
RightShoulder -15.794894 -20.119853 -35.168493
RightArm -8.279149 -13.782103 32.704961
RightForeArm 17.607580 -10.168325 29.085926
RightHand 0.000036 -15.353135 5.354350
RightHandThumb1 30.482666 -12.916435 -20.793814
LeftUpLeg -7.176271 -3.497378 -3.952818
LeftLeg 5.433500 -0.000000 -0.000000
LeftFoot -11.095488 3.203343 -14.927622
LeftToeBase 2.811300 -0.000000 0.000000
RightUpLeg -11.577704 -4.027711 -3.404664
RightLeg 16.461599 -0.000000 -0.000000
RightFoot -14.169405 -10.452951 -7.849165
RightToeBase -0.712600 -0.000000 -0.000000
4267
root -3.891992 32.822833 -1.288697 10.002400 6.468475 1.837851
Spine -8.143579 3.938687 -3.303995
Head -21.028181 0.494398 6.930455
LeftShoulder 16.581720 11.553358 27.361476
LeftArm -35.044924 -21.842622 -33.687425
LeftForeArm -57.824897 13.731916 8.493874
LeftHand -0.000057 34.204880 13.161074
LeftHandThumb1 30.357831 13.997178 22.438692
RightShoulder -15.894373 -20.029547 -35.307632
RightArm -8.015475 -13.500335 32.489609
RightForeArm 17.498294 -10.095739 29.074834
RightHand -0.000007 -15.445777 5.458572
RightHandThumb1 30.482666 -12.916435 -20.793814
LeftUpLeg -7.003434 -3.094387 -4.038063
LeftLeg 5.073300 -0.000000 -0.000000
LeftFoot -10.900123 3.261125 -14.896385
LeftToeBase 2.709200 -0.000000 -0.000000
RightUpLeg -11.305296 -3.778275 -3.387196
RightLeg 15.715800 0.000000 0.000000
RightFoot -13.918426 -10.537495 -8.738426
RightToeBase -0.455400 -0.000000 0.000000
4268
root -3.919892 32.833133 -1.255797 10.079846 6.136359 1.803867
Spine -8.298028 4.126797 -2.968039
Head -20.973287 0.679383 6.291252
LeftShoulder 16.662183 11.728672 27.305570
LeftArm -35.392492 -21.696658 -33.616405
LeftForeArm -57.494385 13.842478 8.668236
LeftHand 0.000043 34.127653 13.476841
LeftHandThumb1 30.357831 13.997178 22.438692
RightShoulder -16.045699 -19.861215 -35.473355
RightArm -7.869655 -13.230509 32.269570
RightForeArm 17.358050 -10.049970 29.173951
RightHand 0.000014 -15.458783 5.602710
RightHandThumb1 30.482666 -12.916435 -20.793814
LeftUpLeg -6.855027 -2.855775 -4.010595
LeftLeg 4.706900 -0.000000 -0.000000
LeftFoot -10.774625 3.460532 -15.010328
LeftToeBase 2.716800 -0.000000 -0.000000
RightUpLeg -11.032098 -3.650096 -3.299201
RightLeg 14.962600 -0.000000 0.000000
RightFoot -13.563501 -10.458963 -9.370691
RightToeBase -0.459300 -0.000000 0.000000
4269
root -3.952892 32.848334 -1.221298 10.159106 5.758999 1.694465
Spine -8.464950 4.434091 -2.567454
Head -20.920358 0.716140 5.614279
LeftShoulder 16.685346 11.871729 27.223559
LeftArm -35.749350 -21.616162 -33.528027
LeftForeArm -57.088597 14.043883 8.925707
LeftHand -0.000024 34.111809 13.033488
LeftHandThumb1 30.357831 13.997178 22.438692
RightShoulder -16.161156 -19.768125 -35.664910
RightArm -7.694268 -12.990273 32.077705
RightForeArm 17.278671 -9.999811 29.172069
RightHand -0.000010 -15.422699 5.702277
RightHandThumb1 30.482666 -12.916435 -20.793814
LeftUpLeg -6.708999 -2.586232 -3.880003
LeftLeg 4.336900 0.000000 0.000000
LeftFoot -10.600052 3.553355 -15.070060
LeftToeBase 2.689700 -0.000000 -0.000000
RightUpLeg -10.750749 -3.470549 -3.166017
RightLeg 14.158400 -0.000000 -0.000000
RightFoot -13.223426 -10.213989 -9.543544
RightToeBase -0.543500 -0.000000 -0.000000
